# Blender v3.2.2 OBJ File: 'energy_core.blend'
# www.blender.org
o Cube.001
v -0.375000 -0.493750 0.375000
v -0.375000 -0.293750 0.375000
v -0.375000 -0.493750 -0.375000
v -0.375000 -0.293750 -0.375000
v 0.375000 -0.493750 0.375000
v 0.375000 -0.293750 0.375000
v 0.375000 -0.493750 -0.375000
v 0.375000 -0.293750 -0.375000
v -0.187500 -0.293750 0.187500
v -0.187500 -0.293750 -0.187500
v 0.187500 -0.293750 -0.187500
v 0.187500 -0.293750 0.187500
v -0.187500 -0.393750 0.187500
v -0.187500 -0.393750 -0.187500
v 0.187500 -0.393750 -0.187500
v 0.187500 -0.393750 0.187500
vt 0.901111 0.809534
vt 0.867787 0.842857
vt 0.867787 0.809534
vt 0.901111 0.842857
vt 0.867787 0.876181
vt 0.901111 0.876181
vt 0.867787 0.909505
vt 0.901111 0.909505
vt 0.867787 0.942828
vt 0.834463 0.909505
vt 0.834463 0.876181
vt 0.901111 0.909505
vt 0.901111 0.942828
vt 0.901111 0.942828
vt 0.901111 0.842857
vt 0.901111 0.942828
vt 0.901111 0.876181
vt 0.934434 0.876181
vt 0.901111 0.909505
vt 0.901111 0.876181
vt 0.901111 0.809534
vt 0.901111 0.842857
vt 0.934434 0.909505
vt 0.901111 0.809534
vn -1.0000 0.0000 0.0000
vn 0.0000 0.0000 -1.0000
vn 1.0000 0.0000 0.0000
vn 0.0000 0.0000 1.0000
vn 0.0000 -1.0000 0.0000
vn 0.0000 1.0000 0.0000
s off
f 2/1/1 3/2/1 1/3/1
f 4/4/2 7/5/2 3/2/2
f 8/6/3 5/7/3 7/5/3
f 6/8/4 1/9/4 5/7/4
f 7/5/5 1/10/5 3/11/5
f 8/6/6 12/12/6 6/8/6
f 12/12/2 13/13/2 9/14/2
f 2/1/6 10/15/6 4/4/6
f 6/8/6 9/14/6 2/16/6
f 4/4/6 11/17/6 8/6/6
f 14/18/6 16/19/6 15/20/6
f 10/15/4 15/20/4 11/17/4
f 11/17/1 16/19/1 12/12/1
f 9/21/3 14/22/3 10/15/3
f 2/1/1 4/4/1 3/2/1
f 4/4/2 8/6/2 7/5/2
f 8/6/3 6/8/3 5/7/3
f 6/8/4 2/16/4 1/9/4
f 7/5/5 5/7/5 1/10/5
f 8/6/6 11/17/6 12/12/6
f 12/12/2 16/19/2 13/13/2
f 2/1/6 9/21/6 10/15/6
f 6/8/6 12/12/6 9/14/6
f 4/4/6 10/15/6 11/17/6
f 14/18/6 13/23/6 16/19/6
f 10/15/4 14/22/4 15/20/4
f 11/17/1 15/20/1 16/19/1
f 9/21/3 13/24/3 14/22/3
o Cube.002
v 0.250000 -0.343750 -0.250000
v 0.250000 -0.143750 -0.250000
v 0.250000 -0.343750 -0.350000
v 0.250000 -0.143750 -0.350000
v 0.350000 -0.343750 -0.250000
v 0.350000 -0.143750 -0.250000
v 0.350000 -0.343750 -0.350000
v 0.350000 -0.143750 -0.350000
v 0.150000 -0.143750 -0.150000
v 0.150000 -0.143750 -0.350000
v 0.350000 -0.143750 -0.350000
v 0.350000 -0.143750 -0.150000
v 0.150000 0.006250 -0.150000
v 0.150000 0.006250 -0.350000
v 0.350000 0.006250 -0.350000
v 0.350000 0.006250 -0.150000
v -0.250000 -0.343750 -0.250000
v -0.250000 -0.143750 -0.250000
v -0.350000 -0.343750 -0.250000
v -0.350000 -0.143750 -0.250000
v -0.250000 -0.343750 -0.350000
v -0.250000 -0.143750 -0.350000
v -0.350000 -0.343750 -0.350000
v -0.350000 -0.143750 -0.350000
v -0.150000 -0.143750 -0.150000
v -0.350000 -0.143750 -0.150000
v -0.350000 -0.143750 -0.350000
v -0.150000 -0.143750 -0.350000
v -0.150000 0.006250 -0.150000
v -0.350000 0.006250 -0.150000
v -0.350000 0.006250 -0.350000
v -0.150000 0.006250 -0.350000
v -0.250000 -0.343750 0.250000
v -0.250000 -0.143750 0.250000
v -0.250000 -0.343750 0.350000
v -0.250000 -0.143750 0.350000
v -0.350000 -0.343750 0.250000
v -0.350000 -0.143750 0.250000
v -0.350000 -0.343750 0.350000
v -0.350000 -0.143750 0.350000
v -0.150000 -0.143750 0.150000
v -0.150000 -0.143750 0.350000
v -0.350000 -0.143750 0.350000
v -0.350000 -0.143750 0.150000
v -0.150000 0.006250 0.150000
v -0.150000 0.006250 0.350000
v -0.350000 0.006250 0.350000
v -0.350000 0.006250 0.150000
v 0.250000 -0.343750 0.250000
v 0.250000 -0.143750 0.250000
v 0.350000 -0.343750 0.250000
v 0.350000 -0.143750 0.250000
v 0.250000 -0.343750 0.350000
v 0.250000 -0.143750 0.350000
v 0.350000 -0.343750 0.350000
v 0.350000 -0.143750 0.350000
v 0.150000 -0.143750 0.150000
v 0.350000 -0.143750 0.150000
v 0.350000 -0.143750 0.350000
v 0.150000 -0.143750 0.350000
v 0.150000 0.006250 0.150000
v 0.350000 0.006250 0.150000
v 0.350000 0.006250 0.350000
v 0.150000 0.006250 0.350000
vt 0.160894 0.773090
vt 0.120356 0.813628
vt 0.120356 0.773090
vt 0.160894 0.813628
vt 0.120356 0.854167
vt 0.160894 0.854167
vt 0.120356 0.894705
vt 0.160894 0.894705
vt 0.120356 0.935244
vt 0.079817 0.894705
vt 0.079817 0.854167
vt 0.160894 0.854167
vt 0.160894 0.894705
vt 0.160894 0.773090
vt 0.160894 0.813628
vt 0.160894 0.813628
vt 0.160894 0.935244
vt 0.160894 0.935244
vt 0.201433 0.854167
vt 0.160894 0.894705
vt 0.160894 0.854167
vt 0.160894 0.935244
vt 0.160894 0.773090
vt 0.120356 0.813628
vt 0.120356 0.773090
vt 0.160894 0.813628
vt 0.120356 0.854167
vt 0.160894 0.854167
vt 0.120356 0.894705
vt 0.160894 0.894705
vt 0.120356 0.935244
vt 0.079817 0.854167
vt 0.079817 0.894705
vt 0.160894 0.854167
vt 0.160894 0.894705
vt 0.160894 0.773090
vt 0.160894 0.813628
vt 0.160894 0.813628
vt 0.160894 0.935244
vt 0.160894 0.935244
vt 0.160894 0.854167
vt 0.201433 0.894705
vt 0.160894 0.894705
vt 0.160894 0.935244
vt 0.160894 0.773090
vt 0.120356 0.813628
vt 0.120356 0.773090
vt 0.160894 0.813628
vt 0.120356 0.854167
vt 0.160894 0.854167
vt 0.120356 0.894705
vt 0.160894 0.894705
vt 0.120356 0.935244
vt 0.079817 0.894705
vt 0.079817 0.854167
vt 0.160894 0.854167
vt 0.160894 0.894705
vt 0.160894 0.773090
vt 0.160894 0.813628
vt 0.160894 0.813628
vt 0.160894 0.935244
vt 0.160894 0.935244
vt 0.160894 0.854167
vt 0.201433 0.894705
vt 0.160894 0.894705
vt 0.160894 0.935244
vt 0.160894 0.773090
vt 0.120356 0.813628
vt 0.120356 0.773090
vt 0.160894 0.813628
vt 0.120356 0.854167
vt 0.160894 0.854167
vt 0.120356 0.894705
vt 0.160894 0.894705
vt 0.120356 0.935244
vt 0.079817 0.894705
vt 0.079817 0.854167
vt 0.160894 0.854167
vt 0.160894 0.894705
vt 0.160894 0.773090
vt 0.160894 0.813628
vt 0.160894 0.813628
vt 0.160894 0.935244
vt 0.160894 0.935244
vt 0.201433 0.854167
vt 0.160894 0.894705
vt 0.160894 0.854167
vt 0.160894 0.935244
vt 0.160894 0.773090
vt 0.201433 0.894705
vt 0.160894 0.773090
vt 0.201433 0.854167
vt 0.160894 0.773090
vt 0.201433 0.854167
vt 0.160894 0.773090
vt 0.201433 0.894705
vn -1.0000 0.0000 0.0000
vn 0.0000 0.0000 -1.0000
vn 1.0000 0.0000 0.0000
vn 0.0000 0.0000 1.0000
vn 0.0000 -1.0000 0.0000
vn 0.0000 1.0000 0.0000
vn 0.0000 0.8480 -0.5300
s off
f 18/25/7 19/26/7 17/27/7
f 20/28/8 23/29/8 19/26/8
f 24/30/9 21/31/9 23/29/9
f 22/32/10 17/33/10 21/31/10
f 23/29/11 17/34/11 19/35/11
f 22/32/10 27/36/10 28/37/10
f 25/38/7 30/39/7 26/40/7
f 18/25/11 26/40/11 20/28/11
f 18/41/11 28/37/11 25/42/11
f 24/30/10 26/40/10 27/36/10
f 30/43/12 32/44/12 31/45/12
f 28/37/10 29/46/10 25/42/10
f 26/40/8 31/45/8 27/36/8
f 27/36/9 32/44/9 28/37/9
f 34/47/10 35/48/10 33/49/10
f 36/50/7 39/51/7 35/48/7
f 40/52/8 37/53/8 39/51/8
f 38/54/9 33/55/9 37/53/9
f 35/56/11 37/53/11 33/57/11
f 38/54/12 43/58/12 44/59/12
f 41/60/10 46/61/10 42/62/10
f 34/47/11 42/62/11 36/50/11
f 34/63/11 44/59/11 41/64/11
f 40/52/10 42/62/10 43/58/10
f 47/65/12 45/66/12 48/67/12
f 44/59/9 45/68/9 41/64/9
f 42/62/7 47/65/7 43/58/7
f 43/58/8 48/67/8 44/59/8
f 50/69/9 51/70/9 49/71/9
f 52/72/10 55/73/10 51/70/10
f 56/74/7 53/75/7 55/73/7
f 54/76/8 49/77/8 53/75/8
f 55/73/11 49/78/11 51/79/11
f 54/76/11 59/80/11 60/81/11
f 57/82/9 62/83/9 58/84/9
f 50/69/11 58/84/11 52/72/11
f 50/85/11 60/81/11 57/86/11
f 56/74/10 58/84/10 59/80/10
f 63/87/12 61/88/12 64/89/12
f 60/81/8 61/90/8 57/86/8
f 58/84/10 63/87/10 59/80/10
f 59/80/7 64/89/7 60/81/7
f 66/91/8 67/92/8 65/93/8
f 68/94/9 71/95/9 67/92/9
f 72/96/10 69/97/10 71/95/10
f 70/98/7 65/99/7 69/97/7
f 71/95/11 65/100/11 67/101/11
f 70/98/12 75/102/12 76/103/12
f 73/104/8 78/105/8 74/106/8
f 66/91/11 74/106/11 68/94/11
f 66/107/11 76/103/11 73/108/11
f 72/96/10 74/106/10 75/102/10
f 78/109/12 80/110/12 79/111/12
f 76/103/7 77/112/7 73/108/7
f 74/106/9 79/111/9 75/102/9
f 75/102/10 80/110/10 76/103/10
f 18/25/7 20/28/7 19/26/7
f 20/28/8 24/30/8 23/29/8
f 24/30/9 22/32/9 21/31/9
f 22/32/10 18/41/10 17/33/10
f 23/29/11 21/31/11 17/34/11
f 22/32/10 24/30/10 27/36/10
f 25/38/7 29/113/7 30/39/7
f 18/25/11 25/38/11 26/40/11
f 18/41/11 22/32/11 28/37/11
f 24/30/10 20/28/10 26/40/10
f 30/43/12 29/114/12 32/44/12
f 28/37/10 32/44/10 29/46/10
f 26/40/8 30/39/8 31/45/8
f 27/36/9 31/45/9 32/44/9
f 34/47/10 36/50/10 35/48/10
f 36/50/7 40/52/7 39/51/7
f 40/52/8 38/54/8 37/53/8
f 38/54/9 34/63/9 33/55/9
f 35/56/11 39/51/11 37/53/11
f 38/54/10 40/52/10 43/58/10
f 41/60/10 45/115/10 46/61/10
f 34/47/11 41/60/11 42/62/11
f 34/63/11 38/54/11 44/59/11
f 40/52/10 36/50/10 42/62/10
f 47/65/12 46/116/12 45/66/12
f 44/59/9 48/67/9 45/68/9
f 42/62/7 46/61/7 47/65/7
f 43/58/8 47/65/8 48/67/8
f 50/69/9 52/72/9 51/70/9
f 52/72/10 56/74/10 55/73/10
f 56/74/7 54/76/7 53/75/7
f 54/76/8 50/85/8 49/77/8
f 55/73/11 53/75/11 49/78/11
f 54/76/10 56/74/10 59/80/10
f 57/82/9 61/117/9 62/83/9
f 50/69/11 57/82/11 58/84/11
f 50/85/11 54/76/11 60/81/11
f 56/74/13 52/72/13 58/84/13
f 63/87/12 62/118/12 61/88/12
f 60/81/8 64/89/8 61/90/8
f 58/84/10 62/83/10 63/87/10
f 59/80/7 63/87/7 64/89/7
f 66/91/8 68/94/8 67/92/8
f 68/94/9 72/96/9 71/95/9
f 72/96/10 70/98/10 69/97/10
f 70/98/7 66/107/7 65/99/7
f 71/95/11 69/97/11 65/100/11
f 70/98/10 72/96/10 75/102/10
f 73/104/8 77/119/8 78/105/8
f 66/91/11 73/104/11 74/106/11
f 66/107/11 70/98/11 76/103/11
f 72/96/11 68/94/11 74/106/11
f 78/109/12 77/120/12 80/110/12
f 76/103/7 80/110/7 77/112/7
f 74/106/9 78/105/9 79/111/9
f 75/102/10 79/111/10 80/110/10
o Cube.003
v -0.000000 -0.168750 0.141421
v -0.000000 0.031250 0.141421
v -0.141421 -0.168750 -0.000000
v -0.141421 0.031250 -0.000000
v 0.141421 -0.168750 0.000000
v 0.141421 0.031250 0.000000
v 0.000000 -0.168750 -0.141421
v 0.000000 0.031250 -0.141421
vt 0.873958 0.082292
vt 0.823958 0.132292
vt 0.823958 0.082292
vt 0.873958 0.132292
vt 0.823958 0.182292
vt 0.873958 0.182292
vt 0.823958 0.232292
vt 0.873958 0.232292
vt 0.823958 0.282292
vt 0.773958 0.232292
vt 0.773958 0.182292
vt 0.923958 0.182292
vt 0.873958 0.282292
vt 0.923958 0.232292
vn -0.7071 0.0000 0.7071
vn -0.7071 0.0000 -0.7071
vn 0.7071 0.0000 -0.7071
vn 0.7071 0.0000 0.7071
vn 0.0000 -1.0000 -0.0000
vn 0.0000 1.0000 0.0000
s off
f 82/121/14 83/122/14 81/123/14
f 84/124/15 87/125/15 83/122/15
f 88/126/16 85/127/16 87/125/16
f 86/128/17 81/129/17 85/127/17
f 87/125/18 81/130/18 83/131/18
f 84/132/19 86/128/19 88/126/19
f 82/121/14 84/124/14 83/122/14
f 84/124/15 88/126/15 87/125/15
f 88/126/16 86/128/16 85/127/16
f 86/128/17 82/133/17 81/129/17
f 87/125/18 85/127/18 81/130/18
f 84/132/19 82/134/19 86/128/19
