# Blender v3.2.2 OBJ File: '3.0_Template_minetes.blend'
# www.blender.org
o Cube.001
v -0.450000 -0.500000 0.450000
v -0.450000 -0.350000 0.450000
v -0.450000 -0.500000 -0.450000
v -0.450000 -0.350000 -0.450000
v 0.450000 -0.500000 0.450000
v 0.450000 -0.350000 0.450000
v 0.450000 -0.500000 -0.450000
v 0.450000 -0.350000 -0.450000
vt 0.189899 0.746247
vt 0.134206 0.801940
vt 0.134206 0.746247
vt 0.189899 0.801940
vt 0.134206 0.857634
vt 0.189899 0.857634
vt 0.134206 0.913327
vt 0.189899 0.913327
vt 0.134206 0.969021
vt 0.078512 0.913327
vt 0.078512 0.857634
vt 0.245593 0.857634
vt 0.189899 0.969021
vt 0.245593 0.913327
vn -1.0000 0.0000 0.0000
vn 0.0000 0.0000 -1.0000
vn 1.0000 0.0000 0.0000
vn 0.0000 0.0000 1.0000
vn 0.0000 -1.0000 0.0000
vn 0.0000 1.0000 0.0000
s off
f 2/1/1 3/2/1 1/3/1
f 4/4/2 7/5/2 3/2/2
f 8/6/3 5/7/3 7/5/3
f 6/8/4 1/9/4 5/7/4
f 7/5/5 1/10/5 3/11/5
f 4/12/6 6/8/6 8/6/6
f 2/1/1 4/4/1 3/2/1
f 4/4/2 8/6/2 7/5/2
f 8/6/3 6/8/3 5/7/3
f 6/8/4 2/13/4 1/9/4
f 7/5/5 5/7/5 1/10/5
f 4/12/6 2/14/6 6/8/6
o Icosphere
v 0.000000 -0.350000 -0.000000
v 0.289440 -0.128886 0.210288
v -0.110554 -0.128886 0.340256
v -0.357770 -0.128886 -0.000000
v -0.110554 -0.128886 -0.340256
v 0.289440 -0.128886 -0.210288
v 0.110554 0.228886 0.340256
v -0.289440 0.228886 0.210288
v -0.289440 0.228886 -0.210288
v 0.110554 0.228886 -0.340256
v 0.357770 0.228886 -0.000000
v 0.000000 0.450000 -0.000000
vt 0.759430 0.135799
vt 0.782033 0.174949
vt 0.736827 0.174949
vt 0.804637 0.135799
vt 0.827240 0.174949
vt 0.940257 0.135799
vt 0.962860 0.174949
vt 0.917653 0.174949
vt 0.895050 0.135799
vt 0.872447 0.174949
vt 0.849843 0.135799
vt 0.804637 0.214100
vt 0.759430 0.214100
vt 0.940257 0.214100
vt 0.895050 0.214100
vt 0.849843 0.214100
vt 0.714223 0.214100
vt 0.782033 0.253250
vt 0.736827 0.253250
vt 0.917653 0.253250
vt 0.872447 0.253250
vt 0.827240 0.253250
vn 0.1876 -0.7947 0.5774
vn 0.6071 -0.7947 0.0000
vn -0.4911 -0.7947 0.3568
vn -0.4911 -0.7947 -0.3568
vn 0.1876 -0.7947 -0.5774
vn 0.9822 -0.1876 0.0000
vn 0.3035 -0.1876 0.9342
vn -0.7946 -0.1876 0.5774
vn -0.7946 -0.1876 -0.5774
vn 0.3035 -0.1876 -0.9342
vn 0.7946 0.1876 0.5774
vn -0.3035 0.1876 0.9342
vn -0.9822 0.1876 0.0000
vn -0.3035 0.1876 -0.9342
vn 0.7946 0.1876 -0.5774
vn 0.4911 0.7947 0.3568
vn -0.1876 0.7947 0.5774
vn -0.6071 0.7947 0.0000
vn -0.1876 0.7947 -0.5774
vn 0.4911 0.7947 -0.3568
s off
f 9/15/7 10/16/7 11/17/7
f 10/16/8 9/18/8 14/19/8
f 9/20/9 11/21/9 12/22/9
f 9/23/10 12/22/10 13/24/10
f 9/25/11 13/24/11 14/19/11
f 10/16/12 14/19/12 19/26/12
f 11/17/13 10/16/13 15/27/13
f 12/22/14 11/21/14 16/28/14
f 13/24/15 12/22/15 17/29/15
f 14/19/16 13/24/16 18/30/16
f 10/16/17 19/26/17 15/27/17
f 11/17/18 15/27/18 16/31/18
f 12/22/19 16/28/19 17/29/19
f 13/24/20 17/29/20 18/30/20
f 14/19/21 18/30/21 19/26/21
f 15/27/22 19/26/22 20/32/22
f 16/31/23 15/27/23 20/33/23
f 17/29/24 16/28/24 20/34/24
f 18/30/25 17/29/25 20/35/25
f 19/26/26 18/30/26 20/36/26
o Cube.002
v 0.200000 -0.450000 -0.200000
v 0.200000 -0.250000 -0.200000
v 0.200000 -0.450000 -0.400000
v 0.200000 -0.250000 -0.400000
v 0.400000 -0.450000 -0.200000
v 0.400000 -0.250000 -0.200000
v 0.400000 -0.450000 -0.400000
v 0.400000 -0.250000 -0.400000
v -0.200000 -0.450000 -0.200000
v -0.200000 -0.250000 -0.200000
v -0.400000 -0.450000 -0.200000
v -0.400000 -0.250000 -0.200000
v -0.200000 -0.450000 -0.400000
v -0.200000 -0.250000 -0.400000
v -0.400000 -0.450000 -0.400000
v -0.400000 -0.250000 -0.400000
v -0.200000 -0.450000 0.200000
v -0.200000 -0.250000 0.200000
v -0.200000 -0.450000 0.400000
v -0.200000 -0.250000 0.400000
v -0.400000 -0.450000 0.200000
v -0.400000 -0.250000 0.200000
v -0.400000 -0.450000 0.400000
v -0.400000 -0.250000 0.400000
v 0.200000 -0.450000 0.200000
v 0.200000 -0.250000 0.200000
v 0.400000 -0.450000 0.200000
v 0.400000 -0.250000 0.200000
v 0.200000 -0.450000 0.400000
v 0.200000 -0.250000 0.400000
v 0.400000 -0.450000 0.400000
v 0.400000 -0.250000 0.400000
vt 0.836915 0.730524
vt 0.786484 0.780955
vt 0.786484 0.730524
vt 0.836915 0.780955
vt 0.786484 0.831385
vt 0.836915 0.831385
vt 0.786484 0.881816
vt 0.836915 0.881816
vt 0.786484 0.932247
vt 0.736053 0.881816
vt 0.736053 0.831385
vt 0.887345 0.831385
vt 0.836915 0.730524
vt 0.786484 0.780955
vt 0.786484 0.730524
vt 0.836915 0.780955
vt 0.786484 0.831385
vt 0.836915 0.831385
vt 0.786484 0.881816
vt 0.836915 0.881816
vt 0.786484 0.932247
vt 0.736053 0.881816
vt 0.736053 0.831385
vt 0.887345 0.831385
vt 0.836915 0.730524
vt 0.786484 0.780955
vt 0.786484 0.730524
vt 0.836915 0.780955
vt 0.786484 0.831385
vt 0.836915 0.831385
vt 0.786484 0.881816
vt 0.836915 0.881816
vt 0.786484 0.932247
vt 0.736053 0.881816
vt 0.736053 0.831385
vt 0.887345 0.831385
vt 0.836915 0.730524
vt 0.786484 0.780955
vt 0.786484 0.730524
vt 0.836915 0.780955
vt 0.786484 0.831385
vt 0.836915 0.831385
vt 0.786484 0.881816
vt 0.836915 0.881816
vt 0.786484 0.932247
vt 0.736053 0.881816
vt 0.736053 0.831385
vt 0.887345 0.831385
vt 0.836915 0.932247
vt 0.887345 0.881816
vt 0.836915 0.932247
vt 0.887345 0.881816
vt 0.836915 0.932247
vt 0.887345 0.881816
vt 0.836915 0.932247
vt 0.887345 0.881816
vn -1.0000 0.0000 0.0000
vn 0.0000 0.0000 -1.0000
vn 1.0000 0.0000 0.0000
vn 0.0000 0.0000 1.0000
vn 0.0000 -1.0000 0.0000
vn 0.0000 1.0000 0.0000
s off
f 22/37/27 23/38/27 21/39/27
f 24/40/28 27/41/28 23/38/28
f 28/42/29 25/43/29 27/41/29
f 26/44/30 21/45/30 25/43/30
f 27/41/31 21/46/31 23/47/31
f 24/48/32 26/44/32 28/42/32
f 30/49/30 31/50/30 29/51/30
f 32/52/27 35/53/27 31/50/27
f 36/54/28 33/55/28 35/53/28
f 34/56/29 29/57/29 33/55/29
f 35/53/31 29/58/31 31/59/31
f 32/60/32 34/56/32 36/54/32
f 38/61/29 39/62/29 37/63/29
f 40/64/30 43/65/30 39/62/30
f 44/66/27 41/67/27 43/65/27
f 42/68/28 37/69/28 41/67/28
f 43/65/31 37/70/31 39/71/31
f 40/72/32 42/68/32 44/66/32
f 46/73/28 47/74/28 45/75/28
f 48/76/29 51/77/29 47/74/29
f 52/78/30 49/79/30 51/77/30
f 50/80/27 45/81/27 49/79/27
f 51/77/31 45/82/31 47/83/31
f 48/84/32 50/80/32 52/78/32
f 22/37/27 24/40/27 23/38/27
f 24/40/28 28/42/28 27/41/28
f 28/42/29 26/44/29 25/43/29
f 26/44/30 22/85/30 21/45/30
f 27/41/31 25/43/31 21/46/31
f 24/48/32 22/86/32 26/44/32
f 30/49/30 32/52/30 31/50/30
f 32/52/27 36/54/27 35/53/27
f 36/54/28 34/56/28 33/55/28
f 34/56/29 30/87/29 29/57/29
f 35/53/31 33/55/31 29/58/31
f 32/60/32 30/88/32 34/56/32
f 38/61/29 40/64/29 39/62/29
f 40/64/30 44/66/30 43/65/30
f 44/66/27 42/68/27 41/67/27
f 42/68/28 38/89/28 37/69/28
f 43/65/31 41/67/31 37/70/31
f 40/72/32 38/90/32 42/68/32
f 46/73/28 48/76/28 47/74/28
f 48/76/29 52/78/29 51/77/29
f 52/78/30 50/80/30 49/79/30
f 50/80/27 46/91/27 45/81/27
f 51/77/31 49/79/31 45/82/31
f 48/84/32 46/92/32 50/80/32
