# Blender v3.2.2 OBJ File: 'turret.blend'
# www.blender.org
o Cube.001
v -0.450000 -0.500000 0.450000
v -0.450000 -0.350000 0.450000
v -0.450000 -0.500000 -0.450000
v -0.450000 -0.350000 -0.450000
v 0.450000 -0.500000 0.450000
v 0.450000 -0.350000 0.450000
v 0.450000 -0.500000 -0.450000
v 0.450000 -0.350000 -0.450000
vt 0.189899 0.746247
vt 0.134206 0.801940
vt 0.134206 0.746247
vt 0.189899 0.801940
vt 0.134206 0.857634
vt 0.189899 0.857634
vt 0.134206 0.913327
vt 0.189899 0.913327
vt 0.134206 0.969021
vt 0.078512 0.913327
vt 0.078512 0.857634
vt 0.245593 0.857634
vt 0.189899 0.969021
vt 0.245593 0.913327
vn -1.0000 0.0000 0.0000
vn 0.0000 0.0000 -1.0000
vn 1.0000 0.0000 0.0000
vn 0.0000 0.0000 1.0000
vn 0.0000 -1.0000 0.0000
vn 0.0000 1.0000 0.0000
s off
f 2/1/1 3/2/1 1/3/1
f 4/4/2 7/5/2 3/2/2
f 8/6/3 5/7/3 7/5/3
f 6/8/4 1/9/4 5/7/4
f 7/5/5 1/10/5 3/11/5
f 4/12/6 6/8/6 8/6/6
f 2/1/1 4/4/1 3/2/1
f 4/4/2 8/6/2 7/5/2
f 8/6/3 6/8/3 5/7/3
f 6/8/4 2/13/4 1/9/4
f 7/5/5 5/7/5 1/10/5
f 4/12/6 2/14/6 6/8/6
o Cube.002_Cube.003
v -0.105000 -0.450000 0.105000
v -0.105000 0.150000 0.105000
v -0.105000 -0.450000 -0.105000
v -0.105000 0.150000 -0.105000
v 0.105000 -0.450000 0.105000
v 0.105000 0.150000 0.105000
v 0.105000 -0.450000 -0.105000
v 0.105000 0.150000 -0.105000
vt 0.490232 0.065113
vt 0.447268 0.108077
vt 0.447268 0.065113
vt 0.490232 0.108077
vt 0.447268 0.151042
vt 0.490232 0.151042
vt 0.447268 0.194006
vt 0.490232 0.194006
vt 0.447268 0.236971
vt 0.404303 0.194006
vt 0.404303 0.151042
vt 0.533197 0.151042
vt 0.490232 0.236971
vt 0.533197 0.194006
vn -1.0000 0.0000 0.0000
vn 0.0000 0.0000 -1.0000
vn 1.0000 0.0000 0.0000
vn 0.0000 0.0000 1.0000
vn 0.0000 -1.0000 0.0000
vn 0.0000 1.0000 0.0000
s off
f 10/15/7 11/16/7 9/17/7
f 12/18/8 15/19/8 11/16/8
f 16/20/9 13/21/9 15/19/9
f 14/22/10 9/23/10 13/21/10
f 15/19/11 9/24/11 11/25/11
f 12/26/12 14/22/12 16/20/12
f 10/15/7 12/18/7 11/16/7
f 12/18/8 16/20/8 15/19/8
f 16/20/9 14/22/9 13/21/9
f 14/22/10 10/27/10 9/23/10
f 15/19/11 13/21/11 9/24/11
f 12/26/12 10/28/12 14/22/12
o Cube.003_Cube.004
v -0.200000 0.000000 0.200000
v -0.200000 0.400000 0.200000
v -0.200000 0.000000 -0.200000
v -0.200000 0.400000 -0.200000
v 0.200000 0.000000 0.200000
v 0.200000 0.400000 0.200000
v 0.200000 0.000000 -0.200000
v 0.200000 0.400000 -0.200000
vt 0.843412 0.402395
vt 0.802422 0.443385
vt 0.802422 0.402395
vt 0.843412 0.443385
vt 0.802422 0.484375
vt 0.843412 0.484375
vt 0.802422 0.525365
vt 0.843412 0.525365
vt 0.802422 0.566355
vt 0.761431 0.525365
vt 0.761431 0.484375
vt 0.884402 0.484375
vt 0.843412 0.566355
vt 0.884402 0.525365
vn -1.0000 0.0000 0.0000
vn 0.0000 0.0000 -1.0000
vn 1.0000 0.0000 0.0000
vn 0.0000 0.0000 1.0000
vn 0.0000 -1.0000 0.0000
vn 0.0000 1.0000 0.0000
s off
f 18/29/13 19/30/13 17/31/13
f 20/32/14 23/33/14 19/30/14
f 24/34/15 21/35/15 23/33/15
f 22/36/16 17/37/16 21/35/16
f 23/33/17 17/38/17 19/39/17
f 20/40/18 22/36/18 24/34/18
f 18/29/13 20/32/13 19/30/13
f 20/32/14 24/34/14 23/33/14
f 24/34/15 22/36/15 21/35/15
f 22/36/16 18/41/16 17/37/16
f 23/33/17 21/35/17 17/38/17
f 20/40/18 18/42/18 22/36/18
o Cube.004_Cube.005
v 0.200000 -0.400000 -0.200000
v 0.200000 -0.200000 -0.200000
v 0.200000 -0.400000 -0.400000
v 0.200000 -0.200000 -0.400000
v 0.400000 -0.400000 -0.200000
v 0.400000 -0.200000 -0.200000
v 0.400000 -0.400000 -0.400000
v 0.400000 -0.200000 -0.400000
v 0.250000 -0.200000 -0.250000
v 0.250000 -0.200000 -0.350000
v 0.350000 -0.200000 -0.250000
v 0.350000 -0.200000 -0.350000
v 0.250000 -0.000000 -0.250000
v 0.250000 -0.000000 -0.350000
v 0.350000 -0.000000 -0.250000
v 0.350000 -0.000000 -0.350000
v -0.200000 -0.400000 -0.200000
v -0.200000 -0.200000 -0.200000
v -0.400000 -0.400000 -0.200000
v -0.400000 -0.200000 -0.200000
v -0.200000 -0.400000 -0.400000
v -0.200000 -0.200000 -0.400000
v -0.400000 -0.400000 -0.400000
v -0.400000 -0.200000 -0.400000
v -0.250000 -0.200000 -0.250000
v -0.350000 -0.200000 -0.250000
v -0.250000 -0.200000 -0.350000
v -0.350000 -0.200000 -0.350000
v -0.250000 -0.000000 -0.250000
v -0.350000 -0.000000 -0.250000
v -0.250000 -0.000000 -0.350000
v -0.350000 -0.000000 -0.350000
v -0.200000 -0.400000 0.200000
v -0.200000 -0.200000 0.200000
v -0.200000 -0.400000 0.400000
v -0.200000 -0.200000 0.400000
v -0.400000 -0.400000 0.200000
v -0.400000 -0.200000 0.200000
v -0.400000 -0.400000 0.400000
v -0.400000 -0.200000 0.400000
v -0.250000 -0.200000 0.250000
v -0.250000 -0.200000 0.350000
v -0.350000 -0.200000 0.250000
v -0.350000 -0.200000 0.350000
v -0.250000 -0.000000 0.250000
v -0.250000 -0.000000 0.350000
v -0.350000 -0.000000 0.250000
v -0.350000 -0.000000 0.350000
v 0.200000 -0.400000 0.200000
v 0.200000 -0.200000 0.200000
v 0.400000 -0.400000 0.200000
v 0.400000 -0.200000 0.200000
v 0.200000 -0.400000 0.400000
v 0.200000 -0.200000 0.400000
v 0.400000 -0.400000 0.400000
v 0.400000 -0.200000 0.400000
v 0.250000 -0.200000 0.250000
v 0.350000 -0.200000 0.250000
v 0.250000 -0.200000 0.350000
v 0.350000 -0.200000 0.350000
v 0.250000 -0.000000 0.250000
v 0.350000 -0.000000 0.250000
v 0.250000 -0.000000 0.350000
v 0.350000 -0.000000 0.350000
vt 0.527792 0.706540
vt 0.461791 0.772541
vt 0.461791 0.706540
vt 0.527792 0.772541
vt 0.461791 0.838542
vt 0.527792 0.838542
vt 0.461791 0.904542
vt 0.527792 0.904542
vt 0.461791 0.970543
vt 0.395790 0.904542
vt 0.395790 0.838542
vt 0.527792 0.838542
vt 0.085084 0.500000
vt 0.085084 0.566001
vt 0.085084 0.566001
vt 0.527792 0.904542
vt 0.527792 0.772541
vt 0.527792 0.970543
vt 0.527792 0.970543
vt 0.151085 0.500000
vt 0.085084 0.500000
vt 0.085084 0.367998
vt 0.085084 0.433999
vt 0.085084 0.433999
vt 0.085084 0.632002
vt 0.085084 0.632002
vt 0.527792 0.706540
vt 0.461791 0.772541
vt 0.461791 0.706540
vt 0.527792 0.772541
vt 0.461791 0.838542
vt 0.527792 0.838542
vt 0.461791 0.904542
vt 0.527792 0.904542
vt 0.461791 0.970543
vt 0.395790 0.904542
vt 0.395790 0.838542
vt 0.527792 0.838542
vt 0.085084 0.500000
vt 0.085084 0.566001
vt 0.085084 0.566001
vt 0.527792 0.904542
vt 0.527792 0.772541
vt 0.527792 0.970543
vt 0.527792 0.970543
vt 0.151085 0.500000
vt 0.085084 0.500000
vt 0.085084 0.367998
vt 0.085084 0.433999
vt 0.085084 0.433999
vt 0.085084 0.632002
vt 0.085084 0.632002
vt 0.527792 0.706540
vt 0.461791 0.772541
vt 0.461791 0.706540
vt 0.527792 0.772541
vt 0.461791 0.838542
vt 0.527792 0.838542
vt 0.461791 0.904542
vt 0.527792 0.904542
vt 0.461791 0.970543
vt 0.395790 0.904542
vt 0.395790 0.838542
vt 0.527792 0.838542
vt 0.085084 0.500000
vt 0.085084 0.566001
vt 0.085084 0.566001
vt 0.527792 0.904542
vt 0.527792 0.772541
vt 0.527792 0.970543
vt 0.527792 0.970543
vt 0.151085 0.500000
vt 0.085084 0.500000
vt 0.085084 0.367998
vt 0.085084 0.433999
vt 0.085084 0.433999
vt 0.085084 0.632002
vt 0.085084 0.632002
vt 0.527792 0.706540
vt 0.461791 0.772541
vt 0.461791 0.706540
vt 0.527792 0.772541
vt 0.461791 0.838542
vt 0.527792 0.838542
vt 0.461791 0.904542
vt 0.527792 0.904542
vt 0.461791 0.970543
vt 0.395790 0.904542
vt 0.395790 0.838542
vt 0.527792 0.838542
vt 0.085084 0.500000
vt 0.085084 0.566001
vt 0.085084 0.566001
vt 0.527792 0.904542
vt 0.527792 0.772541
vt 0.527792 0.970543
vt 0.527792 0.970543
vt 0.151085 0.500000
vt 0.085084 0.500000
vt 0.085084 0.367998
vt 0.085084 0.433999
vt 0.085084 0.433999
vt 0.085084 0.632002
vt 0.085084 0.632002
vt 0.527792 0.706540
vt 0.151085 0.566001
vt 0.085084 0.367998
vt 0.527792 0.706540
vt 0.151085 0.566001
vt 0.085084 0.367998
vt 0.527792 0.706540
vt 0.151085 0.566001
vt 0.085084 0.367998
vt 0.527792 0.706540
vt 0.151085 0.566001
vt 0.085084 0.367998
vn -1.0000 0.0000 0.0000
vn 0.0000 0.0000 -1.0000
vn 1.0000 0.0000 0.0000
vn 0.0000 0.0000 1.0000
vn 0.0000 -1.0000 0.0000
vn 0.0000 1.0000 0.0000
s off
f 26/43/19 27/44/19 25/45/19
f 28/46/20 31/47/20 27/44/20
f 32/48/21 29/49/21 31/47/21
f 30/50/22 25/51/22 29/49/22
f 31/47/23 25/52/23 27/53/23
f 28/46/24 36/54/24 32/48/24
f 36/55/21 39/56/21 35/57/21
f 32/48/24 35/58/24 30/50/24
f 26/43/24 34/59/24 28/46/24
f 30/50/24 33/60/24 26/61/24
f 38/62/24 39/56/24 40/63/24
f 33/64/19 38/65/19 34/66/19
f 35/57/22 37/67/22 33/68/22
f 34/66/20 40/63/20 36/55/20
f 42/69/22 43/70/22 41/71/22
f 44/72/19 47/73/19 43/70/19
f 48/74/20 45/75/20 47/73/20
f 46/76/21 41/77/21 45/75/21
f 47/73/23 41/78/23 43/79/23
f 44/72/24 52/80/24 48/74/24
f 52/81/20 55/82/20 51/83/20
f 48/74/24 51/84/24 46/76/24
f 42/69/24 50/85/24 44/72/24
f 46/76/24 49/86/24 42/87/24
f 54/88/24 55/82/24 56/89/24
f 49/90/22 54/91/22 50/92/22
f 51/83/21 53/93/21 49/94/21
f 50/92/19 56/89/19 52/81/19
f 58/95/21 59/96/21 57/97/21
f 60/98/22 63/99/22 59/96/22
f 64/100/19 61/101/19 63/99/19
f 62/102/20 57/103/20 61/101/20
f 63/99/23 57/104/23 59/105/23
f 60/98/24 68/106/24 64/100/24
f 68/107/19 71/108/19 67/109/19
f 64/100/24 67/110/24 62/102/24
f 58/95/24 66/111/24 60/98/24
f 62/102/24 65/112/24 58/113/24
f 70/114/24 71/108/24 72/115/24
f 65/116/21 70/117/21 66/118/21
f 67/109/20 69/119/20 65/120/20
f 66/118/22 72/115/22 68/107/22
f 74/121/20 75/122/20 73/123/20
f 76/124/21 79/125/21 75/122/21
f 80/126/22 77/127/22 79/125/22
f 78/128/19 73/129/19 77/127/19
f 79/125/23 73/130/23 75/131/23
f 76/124/24 84/132/24 80/126/24
f 84/133/22 87/134/22 83/135/22
f 80/126/24 83/136/24 78/128/24
f 74/121/24 82/137/24 76/124/24
f 78/128/24 81/138/24 74/139/24
f 86/140/24 87/134/24 88/141/24
f 81/142/20 86/143/20 82/144/20
f 83/135/19 85/145/19 81/146/19
f 82/144/21 88/141/21 84/133/21
f 26/43/19 28/46/19 27/44/19
f 28/46/20 32/48/20 31/47/20
f 32/48/21 30/50/21 29/49/21
f 30/50/22 26/61/22 25/51/22
f 31/47/23 29/49/23 25/52/23
f 28/46/24 34/59/24 36/54/24
f 36/55/21 40/63/21 39/56/21
f 32/48/24 36/54/24 35/58/24
f 26/43/24 33/147/24 34/59/24
f 30/50/24 35/58/24 33/60/24
f 38/62/24 37/148/24 39/56/24
f 33/64/19 37/149/19 38/65/19
f 35/57/22 39/56/22 37/67/22
f 34/66/20 38/65/20 40/63/20
f 42/69/22 44/72/22 43/70/22
f 44/72/19 48/74/19 47/73/19
f 48/74/20 46/76/20 45/75/20
f 46/76/21 42/87/21 41/77/21
f 47/73/23 45/75/23 41/78/23
f 44/72/24 50/85/24 52/80/24
f 52/81/20 56/89/20 55/82/20
f 48/74/24 52/80/24 51/84/24
f 42/69/24 49/150/24 50/85/24
f 46/76/24 51/84/24 49/86/24
f 54/88/24 53/151/24 55/82/24
f 49/90/22 53/152/22 54/91/22
f 51/83/21 55/82/21 53/93/21
f 50/92/19 54/91/19 56/89/19
f 58/95/21 60/98/21 59/96/21
f 60/98/22 64/100/22 63/99/22
f 64/100/19 62/102/19 61/101/19
f 62/102/20 58/113/20 57/103/20
f 63/99/23 61/101/23 57/104/23
f 60/98/24 66/111/24 68/106/24
f 68/107/19 72/115/19 71/108/19
f 64/100/24 68/106/24 67/110/24
f 58/95/24 65/153/24 66/111/24
f 62/102/24 67/110/24 65/112/24
f 70/114/24 69/154/24 71/108/24
f 65/116/21 69/155/21 70/117/21
f 67/109/20 71/108/20 69/119/20
f 66/118/22 70/117/22 72/115/22
f 74/121/20 76/124/20 75/122/20
f 76/124/21 80/126/21 79/125/21
f 80/126/22 78/128/22 77/127/22
f 78/128/19 74/139/19 73/129/19
f 79/125/23 77/127/23 73/130/23
f 76/124/24 82/137/24 84/132/24
f 84/133/22 88/141/22 87/134/22
f 80/126/24 84/132/24 83/136/24
f 74/121/24 81/156/24 82/137/24
f 78/128/24 83/136/24 81/138/24
f 86/140/24 85/157/24 87/134/24
f 81/142/20 85/158/20 86/143/20
f 83/135/19 87/134/19 85/145/19
f 82/144/21 86/143/21 88/141/21
