# Blender v3.2.2 OBJ File: ''
# www.blender.org
o Cube
v 0.200000 0.200000 -1.084412
v 0.200000 -0.200000 -1.084412
v 0.200000 0.200000 0.600000
v 0.200000 -0.200000 0.600000
v -0.200000 0.200000 -1.084412
v -0.200000 -0.200000 -1.084412
v -0.200000 0.200000 0.600000
v -0.200000 -0.200000 0.600000
v -0.400000 -0.400000 0.600000
v -0.400000 0.400000 0.600000
v 0.400000 0.400000 0.600000
v 0.400000 -0.400000 0.600000
v -0.400000 -0.400000 1.326997
v -0.400000 0.400000 1.326997
v 0.400000 0.400000 1.326997
v 0.400000 -0.400000 1.326997
vt 0.000000 1.000000
vt 1.000000 0.000000
vt 1.000000 1.000000
vt 0.000000 0.000000
vt 0.000000 1.000000
vt 0.000000 1.000000
vt 1.000000 0.000000
vt 1.000000 1.000000
vt 0.000000 1.000000
vt 0.000000 0.000000
vt 1.000000 0.000000
vt 0.000000 0.000000
vt 0.000000 0.000000
vt 1.000000 0.000000
vt 1.000000 0.000000
vt 1.000000 0.000000
vt 0.000000 0.000000
vt 0.000000 0.000000
vt 0.000000 1.000000
vt 0.000000 0.000000
vt 1.000000 1.000000
vt 0.000000 0.000000
vt 1.000000 0.000000
vt 0.000000 1.000000
vt 1.000000 0.000000
vt 0.000000 1.000000
vt 0.000000 0.000000
vt 1.000000 1.000000
vt 0.000000 0.000000
vt 0.000000 1.000000
vn 0.0000 1.0000 0.0000
vn 0.0000 0.0000 -1.0000
vn -1.0000 0.0000 0.0000
vn 0.0000 -1.0000 0.0000
vn 1.0000 0.0000 0.0000
vn 0.0000 0.0000 1.0000
s off
f 5/1/1 3/2/1 1/3/1
f 8/4/2 10/5/2 7/6/2
f 7/6/3 6/7/3 8/4/3
f 2/8/4 8/4/4 6/9/4
f 1/3/5 4/10/5 2/11/5
f 5/1/2 2/11/2 6/12/2
f 10/13/1 15/14/1 11/15/1
f 4/16/2 9/17/2 8/4/2
f 7/18/2 11/15/2 3/2/2
f 3/19/2 12/20/2 4/10/2
f 15/21/6 13/22/6 16/23/6
f 9/17/3 14/24/3 10/5/3
f 12/25/4 13/22/4 9/17/4
f 11/26/5 16/27/5 12/20/5
f 5/1/1 7/18/1 3/2/1
f 8/4/2 9/17/2 10/5/2
f 7/6/3 5/28/3 6/7/3
f 2/8/4 4/16/4 8/4/4
f 1/3/5 3/19/5 4/10/5
f 5/1/2 1/3/2 2/11/2
f 10/13/1 14/29/1 15/14/1
f 4/16/2 12/25/2 9/17/2
f 7/18/2 10/13/2 11/15/2
f 3/19/2 11/26/2 12/20/2
f 15/21/6 14/24/6 13/22/6
f 9/17/3 13/22/3 14/24/3
f 12/25/4 16/23/4 13/22/4
f 11/26/5 15/30/5 16/27/5
